HIERARCHY
ROOT hip
{
	OFFSET 0.000000 0.000000 0.000000
	CHANNELS 6 Xposition Yposition Zposition Xrotation Zrotation Yrotation 
	JOINT abdomen
	{
		OFFSET 0.000000 3.422050 0.000000
		CHANNELS 3 Xrotation Zrotation Yrotation 
		JOINT chest
		{
			OFFSET 0.000000 8.486693 -0.684411
			CHANNELS 3 Xrotation Zrotation Yrotation 
			JOINT neck
			{
				OFFSET 0.000000 10.266162 -0.273764
				CHANNELS 3 Xrotation Zrotation Yrotation 
				JOINT head
				{
					OFFSET 0.000000 3.148285 0.000000
					CHANNELS 3 Xrotation Zrotation Yrotation 
					End Site
					{
						OFFSET 0.000000 3.148289 0.000000
					}
				}
			}
			JOINT lCollar
			{
				OFFSET 3.422053 6.707223 -0.821293
				CHANNELS 3 Yrotation Zrotation Xrotation 
				JOINT lShldr
				{
					OFFSET 3.285171 0.000000 0.000000
					CHANNELS 3 Zrotation Yrotation Xrotation 
					JOINT lForeArm
					{
						OFFSET 10.129278 0.000000 0.000000
						CHANNELS 3 Yrotation Zrotation Xrotation 
						JOINT lHand
						{
							OFFSET 8.486692 0.000000 0.000000
							CHANNELS 3 Zrotation Yrotation Xrotation 
							End Site
							{
								OFFSET 4.106464 0.000000 0.000000
							}
						}
					}
				}
			}
			JOINT rCollar
			{
				OFFSET -3.558935 6.707223 -0.821293
				CHANNELS 3 Yrotation Zrotation Xrotation 
				JOINT rShldr
				{
					OFFSET -3.148289 0.000000 0.000000
					CHANNELS 3 Zrotation Yrotation Xrotation 
					JOINT rForeArm
					{
						OFFSET -10.266159 0.000000 0.000000
						CHANNELS 3 Yrotation Zrotation Xrotation 
						JOINT rHand
						{
							OFFSET -8.349810 0.000000 0.000000
							CHANNELS 3 Zrotation Yrotation Xrotation 
							End Site
							{
								OFFSET -4.106464 0.000000 0.000000
							}
						}
					}
				}
			}
		}
	}
	JOINT lThigh
	{
		OFFSET 5.338403 -1.642589 1.368821
		CHANNELS 3 Xrotation Zrotation Yrotation 
		JOINT lShin
		{
			OFFSET -2.053232 -20.121670 0.000000
			CHANNELS 3 Xrotation Zrotation Yrotation 
			JOINT lFoot
			{
				OFFSET 0.000000 -19.300380 -1.231939
				CHANNELS 3 Xrotation Yrotation Zrotation 
				End Site
				{
					OFFSET 0.000000 -2.463878 4.653993
				}
			}
		}
	}
	JOINT rThigh
	{
		OFFSET -5.338403 -1.642589 1.368821
		CHANNELS 3 Xrotation Zrotation Yrotation 
		JOINT rShin
		{
			OFFSET 2.053232 -20.121670 0.000000
			CHANNELS 3 Xrotation Zrotation Yrotation 
			JOINT rFoot
			{
				OFFSET 0.000000 -19.300380 -1.231939
				CHANNELS 3 Xrotation Yrotation Zrotation 
				End Site
				{
					OFFSET 0.000000 -2.463878 4.653993
				}
			}
		}
	}
}
MOTION
Frames: 20
Frame Time: 0.049897
19.995884 6.711674 14.520968 121.005341 -0.002582 179.995438 9.682864 0.000000 0.000000 39.613396 -0.000609 -0.451087 13.997003 0.000000 0.000000 0.134637 0.000000 0.000000 -1.368329 -15.289257 -7.278286 -18.260546 1.469929 55.136696 -15.773685 -2.637311 36.157494 2.405935 2.056716 2.341418 1.448209 15.074795 -7.324757 18.234507 -1.554481 55.191364 15.805876 2.544605 36.147991 -2.379620 -2.010261 2.334741 -71.799759 18.170166 31.660660 122.948051 34.713181 16.180355 -10.453363 3.777698 20.635443 -60.879662 -17.215977 -34.535225 121.594879 -39.589069 4.021601 -7.555047 -0.970974 -2.418741 
19.995884 6.711674 14.554911 121.005341 -0.002582 179.995438 10.209363 0.000000 0.000000 38.158772 -0.000627 -0.451155 13.997003 0.000000 0.000000 0.134637 0.000000 0.000000 -1.262225 -16.710409 -7.079603 -17.170147 1.450133 55.147408 -15.123568 -2.543727 36.174686 2.330077 1.670060 2.959971 1.347172 16.479815 -7.130990 17.144203 -1.538200 55.205162 15.162653 2.450014 36.164303 -2.301195 -1.624202 2.955170 -71.441322 18.208916 31.711224 122.597893 34.787285 15.981494 -10.453363 3.777698 20.635443 -60.522171 -17.148046 -34.687576 121.105553 -39.698990 4.341993 -7.484898 -1.109773 -2.432496 
19.995884 6.711674 14.588853 121.005341 -0.002582 179.995438 10.735820 0.000000 0.000000 36.705074 -0.000647 -0.451222 13.997003 0.000000 0.000000 0.134637 0.000000 0.000000 -1.150180 -18.130304 -6.876728 -16.080156 1.430144 55.157738 -14.473601 -2.449964 36.190792 2.250075 1.284311 3.578824 1.240441 17.883627 -6.933264 16.054306 -1.521666 55.218624 14.519592 2.355259 36.179558 -2.218621 -1.239079 3.575918 -71.082779 18.247364 31.762060 122.247139 34.860390 15.781909 -10.453363 3.777698 20.635443 -60.165039 -17.079222 -34.839424 120.614670 -39.806797 4.664090 -7.414779 -1.248587 -2.446082 
19.995884 6.711674 14.622795 121.005341 -0.002582 179.995438 11.262209 0.000000 0.000000 35.252800 -0.000669 -0.451289 13.997003 0.000000 0.000000 0.134637 0.000000 0.000000 -1.031963 -19.548477 -6.669382 -14.990767 1.409974 55.167683 -13.823840 -2.356044 36.205845 2.165942 0.899542 4.197985 1.127802 19.285795 -6.731323 14.965016 -1.504888 55.231777 13.876721 2.260357 36.193737 -2.131911 -0.854967 4.196991 -70.724136 18.285509 31.813154 121.895775 34.932495 15.581615 -10.453363 3.777698 20.635443 -59.808239 -17.009491 -34.990749 120.122253 -39.912453 4.987851 -7.344693 -1.387417 -2.459499 
19.995884 6.711674 14.656737 121.005341 -0.002582 179.995438 11.788507 0.000000 0.000000 33.802383 -0.000692 -0.451355 13.997003 0.000000 0.000000 0.134637 0.000000 0.000000 -0.907329 -20.964453 -6.457271 -13.902182 1.389632 55.177227 -13.174318 -2.261985 36.219822 2.077693 0.515832 4.817453 1.009025 20.685854 -6.524886 13.876529 -1.487877 55.244602 13.234084 2.165328 36.206856 -2.041080 -0.471946 4.818391 -70.365402 18.323343 31.864506 121.543816 35.003571 15.380620 -10.453363 3.777698 20.635443 -59.451790 -16.938868 -35.141556 119.628372 -40.015965 5.313253 -7.274634 -1.526261 -2.472746 
19.995884 6.711674 14.690680 121.005341 -0.002582 179.995438 12.314693 0.000000 0.000000 32.354298 -0.000717 -0.451421 13.997003 0.000000 0.000000 0.134637 0.000000 0.000000 -0.776007 -22.377768 -6.240079 -12.814591 1.369132 55.186363 -12.525068 -2.167804 36.232723 1.985343 0.133256 5.437233 0.883859 22.083357 -6.313659 12.789030 -1.470641 55.257065 12.591711 2.070187 36.218895 -1.946144 -0.090091 5.440119 -70.006615 18.360876 31.916122 121.191299 35.073647 15.178940 -10.453363 3.777698 20.635443 -59.095699 -16.867350 -35.291813 119.133064 -40.117310 5.640261 -7.204601 -1.665118 -2.485823 
19.995884 6.711674 14.724622 121.005341 -0.002582 179.995438 12.840751 0.000000 0.000000 30.908993 -0.000743 -0.451486 13.997003 0.000000 0.000000 0.134637 0.000000 0.000000 -0.637710 -23.787971 -6.017476 -11.728188 1.348484 55.195114 -11.876140 -2.073520 36.244560 1.888908 -0.248110 6.057327 0.752037 23.477875 -6.097332 11.702724 -1.453190 55.269207 11.949642 1.974954 36.229866 -1.847118 0.290524 6.062177 -69.647728 18.398088 31.967974 120.838165 35.142681 14.976569 -10.453363 3.777698 20.635443 -58.739990 -16.794956 -35.441547 118.636314 -40.216457 5.968835 -7.134600 -1.803989 -2.498732 
19.995884 6.711674 14.758564 121.005341 -0.002582 179.995438 13.366648 0.000000 0.000000 29.466923 -0.000771 -0.451549 13.997003 0.000000 0.000000 0.134637 0.000000 0.000000 -0.492127 -25.194586 -5.789108 -10.643173 1.327702 55.203476 -11.227562 -1.979151 36.255314 1.788405 -0.628191 6.677735 0.613268 24.868942 -5.875572 10.617800 -1.435534 55.280998 11.307917 1.879647 36.239758 -1.744021 0.669821 6.684569 -69.288780 18.434990 32.020084 120.484482 35.210693 14.773539 -10.453363 3.777698 20.635443 -58.384670 -16.721684 -35.590725 118.138206 -40.313427 6.298956 -7.064626 -1.942871 -2.511472 
19.995884 6.711674 14.792506 121.005341 -0.002582 179.995438 13.892373 0.000000 0.000000 28.028521 -0.000801 -0.451612 13.997003 0.000000 0.000000 0.134637 0.000000 0.000000 -0.338922 -26.597172 -5.554598 -9.559730 1.306794 55.211414 -10.579381 -1.884717 36.264999 1.683853 -1.006912 7.298460 0.467242 26.256140 -5.648028 9.534448 -1.417684 55.292431 10.666572 1.784285 36.248581 -1.636871 1.047726 7.307292 -68.929771 18.471575 32.072441 120.130287 35.277676 14.569856 -10.453363 3.777698 20.635443 -58.029724 -16.647535 -35.739349 117.638756 -40.408161 6.630571 -6.994679 -2.081765 -2.524043 
19.995884 6.711674 14.826448 121.005341 -0.002582 179.995438 14.417894 0.000000 0.000000 26.594248 -0.000832 -0.451674 13.997003 0.000000 0.000000 0.134637 0.000000 0.000000 -0.177732 -27.995255 -5.313544 -8.478050 1.285774 55.218941 -9.931628 -1.790235 36.273594 1.575270 -1.384199 7.919501 0.313620 27.639013 -5.414323 8.452861 -1.399651 55.303513 10.025642 1.688884 36.256317 -1.525688 1.424164 7.930344 -68.570724 18.507845 32.125042 119.775520 35.343605 14.365517 -10.453363 3.777698 20.635443 -57.675190 -16.572521 -35.887413 117.138008 -40.500683 6.963659 -6.924757 -2.220669 -2.536444 
19.995882 6.711674 14.860390 121.005341 -0.002582 179.995438 14.943197 0.000000 0.000000 25.164516 -0.000864 -0.451735 13.997003 0.000000 0.000000 0.134637 0.000000 0.000000 -0.008165 -29.388416 -5.065518 -7.398323 1.264654 55.226059 -9.284348 -1.695723 36.281132 1.462677 -1.759978 8.540857 0.152041 29.017147 -5.174057 7.373223 -1.381445 55.314228 9.385169 1.593465 36.262997 -1.410493 1.799062 8.553727 -68.211617 18.543793 32.177879 119.420242 35.408512 14.160551 -10.453363 3.777698 20.635443 -57.321060 -16.496645 -36.034897 116.635986 -40.590958 7.298172 -6.854863 -2.359583 -2.548677 
19.995882 6.711674 14.894332 121.005341 -0.002582 179.995438 15.468254 0.000000 0.000000 23.739740 -0.000898 -0.451795 13.997003 0.000000 0.000000 0.134637 0.000000 0.000000 0.170203 -30.776197 -4.810057 -6.320732 1.243446 55.232769 -8.637577 -1.601201 36.287598 1.346094 -2.134177 9.162529 -0.017891 30.390114 -4.926801 6.295722 -1.363077 55.324593 8.745186 1.498044 36.268604 -1.291306 2.172347 9.177440 -67.852486 18.579420 32.230953 119.064445 35.472363 13.954956 -10.453363 3.777698 20.635443 -56.967354 -16.419914 -36.181805 116.132721 -40.678967 7.634077 -6.784992 -2.498506 -2.560741 
19.995882 6.711674 14.928274 121.005341 -0.002582 179.995438 15.993051 0.000000 0.000000 22.320351 -0.000933 -0.451854 13.997003 0.000000 0.000000 0.134637 0.000000 0.000000 0.357830 -32.158165 -4.546668 -5.245464 1.222161 55.239075 -7.991349 -1.506685 36.292976 1.225544 -2.506723 9.784514 -0.196598 31.757481 -4.672094 5.220543 -1.344557 55.334572 8.105730 1.402639 36.273136 -1.168150 2.543945 9.801478 -67.493317 18.614721 32.284264 118.708145 35.535164 13.748749 -10.453363 3.777698 20.635443 -56.614059 -16.342331 -36.328117 115.628288 -40.764721 7.971330 -6.715146 -2.637438 -2.572636 
19.995882 6.711674 14.962216 121.005341 -0.002582 179.995438 16.517553 0.000000 0.000000 20.906746 -0.000970 -0.451912 13.997003 0.000000 0.000000 0.134637 0.000000 0.000000 0.555212 -33.533905 -4.274820 -4.172694 1.200812 55.244946 -7.345707 -1.412196 36.297302 1.101050 -2.877545 10.406809 -0.384540 33.118855 -4.409445 4.147862 -1.325897 55.344185 7.466836 1.307270 36.276600 -1.041049 2.913785 10.425839 -67.134109 18.649694 32.337799 118.351318 35.596889 13.541933 -10.453363 3.777698 20.635443 -56.261211 -16.263905 -36.473846 115.122719 -40.848190 8.309898 -6.645326 -2.776377 -2.584363 
19.995882 6.711674 14.996159 121.005341 -0.002582 179.995438 17.041752 0.000000 0.000000 19.499310 -0.001007 -0.451969 13.997003 0.000000 0.000000 0.134637 0.000000 0.000000 0.762888 -34.902973 -3.993945 -3.102607 1.179409 55.250416 -6.700687 -1.317750 36.300552 0.972635 -3.246570 11.029410 -0.582214 34.473816 -4.138324 3.077864 -1.307106 55.353416 6.828545 1.211953 36.279003 -0.910029 3.281797 11.050521 -66.774910 18.684343 32.391563 117.994072 35.657570 13.334543 -10.453363 3.777698 20.635443 -55.908794 -16.184635 -36.618961 114.616013 -40.929359 8.649737 -6.575531 -2.915323 -2.595921 
19.995882 6.711674 15.030101 121.005341 -0.002582 179.995438 17.565619 0.000000 0.000000 18.098429 -0.001046 -0.452024 13.997003 0.000000 0.000000 0.134637 0.000000 0.000000 0.981442 -36.264957 -3.703423 -2.035377 1.157966 55.255463 -6.056323 -1.223364 36.302723 0.840326 -3.613731 11.652316 -0.790159 35.821964 -3.858161 2.010721 -1.288198 55.362289 6.190890 1.116706 36.280338 -0.775113 3.647909 11.675515 -66.415695 18.718662 32.445560 117.636337 35.717194 13.126571 -10.453363 3.777698 20.635443 -55.556835 -16.104540 -36.763474 114.108246 -41.008224 8.990805 -6.505755 -3.054276 -2.607310 
19.995882 6.711674 15.064043 121.005341 -0.002582 179.995438 18.089134 0.000000 0.000000 16.704473 -0.001086 -0.452078 13.997003 0.000000 0.000000 0.134637 0.000000 0.000000 1.211508 -37.619465 -3.402591 -0.971172 1.136493 55.260109 -5.412656 -1.129060 36.303852 0.704147 -3.978958 12.275521 -1.008961 37.162914 -3.568338 0.946603 -1.269182 55.370773 5.553906 1.021547 36.280617 -0.636328 4.012054 12.300819 -66.056480 18.752651 32.499771 117.278145 35.775738 12.918036 -10.453363 3.777698 20.635443 -55.205338 -16.023615 -36.907368 113.599480 -41.084782 9.333060 -6.436004 -3.193234 -2.618530 
19.995882 6.711674 15.097985 121.005341 -0.002582 179.995438 18.612280 0.000000 0.000000 15.317798 -0.001127 -0.452131 13.997003 0.000000 0.000000 0.134637 0.000000 0.000000 1.453776 -38.966076 -3.090729 0.089831 1.115003 55.264343 -4.769723 -1.034852 36.303913 0.564126 -4.342180 12.899014 -1.239252 38.496254 -3.268194 -0.114314 -1.250069 55.378876 4.917632 0.926495 36.279842 -0.493704 4.374160 12.926426 -65.697281 18.786306 32.554199 116.919518 35.833214 12.708947 -10.453363 3.777698 20.635443 -54.854317 -15.941875 -37.050648 113.089737 -41.159008 9.676460 -6.366275 -3.332196 -2.629582 
19.995882 6.711674 15.131927 121.005341 -0.002582 179.995438 19.135023 0.000000 0.000000 13.938752 -0.001170 -0.452183 13.997003 0.000000 0.000000 0.134637 0.000000 0.000000 1.708997 -40.304394 -2.767056 1.147472 1.093506 55.268154 -4.127556 -0.940760 36.302914 0.420291 -4.703333 13.522798 -1.481725 39.821636 -2.957007 -1.171870 -1.230871 55.386600 4.282098 0.831565 36.278008 -0.347266 4.734163 13.552327 -65.338066 18.819626 32.608849 116.560471 35.889610 12.499320 -10.453363 3.777698 20.635443 -54.503738 -15.859310 -37.193279 112.579041 -41.230896 10.020967 -6.296569 -3.471164 -2.640465 
19.995882 6.711674 15.165870 121.005341 -0.002582 179.995438 19.657356 0.000000 0.000000 12.567667 -0.001213 -0.452233 13.997003 0.000000 0.000000 0.134637 0.000000 0.000000 1.977989 -41.634033 -2.430727 2.201584 1.072014 55.271576 -3.486198 -0.846801 36.300873 0.272672 -5.062348 14.146859 -1.737132 41.138668 -2.634000 -2.225895 -1.211597 55.393951 3.647345 0.736776 36.275124 -0.197047 5.091994 14.178514 -64.978905 18.852610 32.663704 116.200989 35.944923 12.289164 -10.453363 3.777698 20.635443 -54.153667 -15.775946 -37.335289 112.067436 -41.300430 10.366531 -6.226880 -3.610133 -2.651180 
